<svg width="24" height="24" viewBox="0 0 24 24" fill="none" xmlns="http://www.w3.org/2000/svg">
<path d="M4.26562 24H21.8438V2.8125H20.4375V0H4.26562C3.10254 0 2.15625 0.946289 2.15625 2.10938V21.8906C2.15625 23.0537 3.10254 24 4.26562 24ZM3.5625 21.8906V4.0979C3.78259 4.1759 4.01917 4.21875 4.26562 4.21875H4.96875V22.5938H4.26562C3.87799 22.5938 3.5625 22.2783 3.5625 21.8906ZM20.4375 22.5938H6.375V4.21875H13.4062V11.8607L16.2188 9.98566L19.0312 11.8607V4.21875H20.4375V22.5938ZM14.8125 4.21875H17.625V9.23309L16.2188 8.29559L14.8125 9.23309V4.21875ZM4.26562 1.40625H19.0312V2.8125C18.1882 2.8125 4.84827 2.8125 4.26562 2.8125C3.87799 2.8125 3.5625 2.49701 3.5625 2.10938C3.5625 1.72174 3.87799 1.40625 4.26562 1.40625Z" fill="#888888"/>
</svg>
