<svg width="24" height="24" viewBox="0 0 24 24" fill="none" xmlns="http://www.w3.org/2000/svg">
<path d="M21.2812 0H17.5688C17.051 0 16.6313 0.419678 16.6313 0.9375V3.71246H14.7938V0.9375C14.7938 0.419678 14.374 0 13.8563 0H10.1437C9.62604 0 9.20618 0.419678 9.20618 0.9375V3.71246H7.36871V0.9375C7.36871 0.419678 6.94904 0 6.43121 0H2.71875C2.20093 0 1.78125 0.419678 1.78125 0.9375V8.0625C1.78125 8.58032 2.20093 9 2.71875 9H3.5625V23.0625C3.5625 23.5803 3.98218 24 4.5 24H19.5C20.0178 24 20.4375 23.5803 20.4375 23.0625V9H21.2812C21.7991 9 22.2188 8.58032 22.2188 8.0625V0.9375C22.2188 0.419678 21.7991 0 21.2812 0ZM14.1094 22.125H9.89062V16.7344C9.89062 15.5713 10.8369 14.625 12 14.625C13.1631 14.625 14.1094 15.5713 14.1094 16.7344V22.125ZM18.5625 22.125H15.9844V16.7344C15.9844 14.5375 14.1969 12.75 12 12.75C9.8031 12.75 8.01562 14.5375 8.01562 16.7344V22.125H5.4375V9H18.5625V22.125ZM20.3438 7.125C19.7754 7.125 4.39124 7.125 3.65625 7.125V1.875H5.49371V4.64996C5.49371 5.16779 5.91339 5.58746 6.43121 5.58746H10.1437C10.6615 5.58746 11.0812 5.16779 11.0812 4.64996V1.875H12.9188V4.64996C12.9188 5.16779 13.3385 5.58746 13.8563 5.58746H17.5688C18.0866 5.58746 18.5063 5.16779 18.5063 4.64996V1.875H20.3438V7.125Z" fill="#ffffff"/>
</svg>
