<svg width="24" height="24" viewBox="0 0 24 24" fill="none" xmlns="http://www.w3.org/2000/svg">
<g clip-path="url(#clip0_170_30)">
<path d="M23.5667 7.28661L22.3924 3.38534C22.1039 2.42661 21.5028 1.5649 20.6999 0.958951C19.8693 0.332045 18.879 0.000732422 17.8359 0.000732422H12.375C10.4365 0.000732422 8.85938 1.57784 8.85938 3.51636V4.21948H13.0781V7.03198H0V7.73511C0 9.45392 1.24017 10.8876 2.8725 11.1907C3.13687 12.6144 4.26136 13.7389 5.685 14.0032C5.81442 14.7003 6.14977 15.3255 6.62592 15.8134L0.00196875 22.4752L0.497719 22.971C1.18317 23.6564 2.08322 23.9991 2.98364 23.999C3.67973 23.999 4.37555 23.7931 4.97236 23.3833C5.56917 23.7932 6.26484 23.999 6.96117 23.999C7.86131 23.999 8.76178 23.6562 9.44705 22.971L11.933 20.4851H13.7578C16.4936 20.4851 19.0656 19.4197 21.0001 17.4852C22.9347 15.5507 24 12.9787 24 10.2429C24 9.23642 23.8542 8.24178 23.5667 7.28661ZM10.3861 2.81323C10.6763 1.99475 11.4583 1.40698 12.375 1.40698H13.0781V2.81323H10.3861ZM1.52672 8.43823H13.7578C15.6963 8.43823 17.2734 10.0153 17.2734 11.9539C17.2734 13.8924 15.6963 15.4695 13.7578 15.4695C11.8193 15.4695 10.2422 13.8924 10.2422 11.9539V9.84448H3.51562C2.59889 9.84448 1.81692 9.25672 1.52672 8.43823ZM7.15219 14.0632H9.31148C9.5625 14.5902 9.9045 15.0657 10.317 15.4695H9.14062C8.22398 15.4695 7.44244 14.8816 7.15219 14.0632ZM4.33969 11.2507H8.83594V11.9539C8.83594 12.1926 8.85338 12.4272 8.88638 12.657H6.32812C5.41148 12.657 4.62994 12.0691 4.33969 11.2507ZM2.98364 22.5945C2.66259 22.5945 2.35256 22.5232 2.0715 22.3883L3.96384 20.4851H5.96672L4.47516 21.9767C4.07677 22.3751 3.54708 22.5945 2.98364 22.5945ZM8.45269 21.9766C7.8045 22.6248 6.83616 22.7617 6.05227 22.3883L7.95548 20.4851H9.94425L8.45269 21.9766ZM13.7578 19.0789H5.36212L7.81252 16.6145C8.22258 16.7824 8.6708 16.8757 9.14062 16.8757H13.7578C16.4717 16.8757 18.6797 14.6678 18.6797 11.9539C18.6797 9.48678 16.855 7.43801 14.4844 7.0857V1.40698H17.8359C19.3035 1.40698 20.6234 2.38723 21.0459 3.79072L22.2202 7.69198C22.4681 8.51558 22.5938 9.37386 22.5938 10.2429C22.5938 15.1151 18.63 19.0789 13.7578 19.0789Z" fill="#888888"/>
</g>
<defs>
<clipPath id="clip0_170_30">
<rect width="24" height="24" fill="white"/>
</clipPath>
</defs>
</svg>
