<svg width="24" height="24" viewBox="0 0 24 24" fill="none" xmlns="http://www.w3.org/2000/svg">
<g clip-path="url(#clip0_170_32)">
<path d="M21.8906 0H14.8125C13.6494 0 12.7031 0.946266 12.7031 2.10938V9.1875C12.7031 10.3506 13.6494 11.2969 14.8125 11.2969H21.8906C23.0537 11.2969 24 10.3506 24 9.1875V2.10938C24 0.946266 23.0537 0 21.8906 0ZM22.5938 9.1875C22.5938 9.5752 22.2783 9.89062 21.8906 9.89062H14.8125C14.4248 9.89062 14.1094 9.5752 14.1094 9.1875V2.10938C14.1094 1.72167 14.4248 1.40625 14.8125 1.40625H21.8906C22.2783 1.40625 22.5938 1.72167 22.5938 2.10938V9.1875Z" fill="#888888"/>
<path d="M21.8906 12.7031H14.8125C13.6494 12.7031 12.7031 13.6494 12.7031 14.8125V21.8906C12.7031 23.0537 13.6494 24 14.8125 24H21.8906C23.0537 24 24 23.0537 24 21.8906V14.8125C24 13.6494 23.0537 12.7031 21.8906 12.7031ZM22.5938 21.8906C22.5938 22.2783 22.2783 22.5938 21.8906 22.5938H14.8125C14.4248 22.5938 14.1094 22.2783 14.1094 21.8906V14.8125C14.1094 14.4248 14.4248 14.1094 14.8125 14.1094H21.8906C22.2783 14.1094 22.5938 14.4248 22.5938 14.8125V21.8906Z" fill="#888888"/>
<path d="M2.10938 11.2969H9.1875C10.3506 11.2969 11.2969 10.3506 11.2969 9.1875V2.10938C11.2969 0.946266 10.3506 0 9.1875 0H2.10938C0.946266 0 0 0.946266 0 2.10938V9.1875C0 10.3506 0.946266 11.2969 2.10938 11.2969ZM1.40625 2.10938C1.40625 1.72167 1.72167 1.40625 2.10938 1.40625H9.1875C9.5752 1.40625 9.89062 1.72167 9.89062 2.10938V9.1875C9.89062 9.5752 9.5752 9.89062 9.1875 9.89062H2.10938C1.72167 9.89062 1.40625 9.5752 1.40625 9.1875V2.10938Z" fill="#888888"/>
<path d="M0 21.8906C0 23.0537 0.946266 24 2.10938 24H9.1875C10.3506 24 11.2969 23.0537 11.2969 21.8906V14.8125C11.2969 13.6494 10.3506 12.7031 9.1875 12.7031H2.10938C0.946266 12.7031 0 13.6494 0 14.8125V21.8906ZM1.40625 14.8125C1.40625 14.4248 1.72167 14.1094 2.10938 14.1094H9.1875C9.5752 14.1094 9.89062 14.4248 9.89062 14.8125V21.8906C9.89062 22.2783 9.5752 22.5938 9.1875 22.5938H2.10938C1.72167 22.5938 1.40625 22.2783 1.40625 21.8906V14.8125Z" fill="#888888"/>
<path d="M2.85938 19.7344H4.26562V21.1406H2.85938V19.7344Z" fill="#888888"/>
<path d="M4.96875 17.625H6.375V19.0312H4.96875V17.625Z" fill="#888888"/>
<path d="M7.07812 15.5156H8.48438V16.9219H7.07812V15.5156Z" fill="#888888"/>
<path d="M15.5156 19.7344H16.9219V21.1406H15.5156V19.7344Z" fill="#888888"/>
<path d="M15.5156 15.5156H16.9219V16.9219H15.5156V15.5156Z" fill="#888888"/>
<path d="M19.7344 19.7344H21.1406V21.1406H19.7344V19.7344Z" fill="#888888"/>
<path d="M19.7344 7.07812H21.1406V8.48438H19.7344V7.07812Z" fill="#888888"/>
<path d="M15.5156 2.85938H16.9219V4.26562H15.5156V2.85938Z" fill="#888888"/>
<path d="M17.625 17.625H19.0312V19.0312H17.625V17.625Z" fill="#888888"/>
<path d="M19.7344 15.5156H21.1406V16.9219H19.7344V15.5156Z" fill="#888888"/>
<path d="M2.85938 7.07812H4.26562V8.48438H2.85938V7.07812Z" fill="#888888"/>
<path d="M7.07812 2.85938H8.48438V4.26562H7.07812V2.85938Z" fill="#888888"/>
<path d="M15.5156 7.07812H16.9219V8.48438H15.5156V7.07812Z" fill="#888888"/>
<path d="M19.7344 2.85938H21.1406V4.26562H19.7344V2.85938Z" fill="#888888"/>
</g>
<defs>
<clipPath id="clip0_170_32">
<rect width="24" height="24" fill="white"/>
</clipPath>
</defs>
</svg>
